<svg width="720" height="720" viewBox="0 0 720 720" fill="none" xmlns="http://www.w3.org/2000/svg">
<defs>
<linearGradient id="bg" x1="0" y1="0" x2="720" y2="720"><stop stop-color="#190F2E"/><stop offset="1" stop-color="#09111D"/></linearGradient>
<radialGradient id="glow" cx="0" cy="0" r="1" gradientUnits="userSpaceOnUse" gradientTransform="translate(360 230) rotate(90) scale(250 220)"><stop stop-color="#FB7185" stop-opacity="0.48"/><stop offset="1" stop-color="#FB7185" stop-opacity="0"/></radialGradient>
<linearGradient id="tank" x1="140" y1="190" x2="560" y2="560"><stop stop-color="#F97316"/><stop offset="1" stop-color="#7C2D12"/></linearGradient>
</defs>
<rect width="720" height="720" rx="32" fill="url(#bg)"/>
<rect width="720" height="720" fill="url(#glow)"/>
<g opacity="0.12" stroke="#C084FC"><line x1="60" y1="40" x2="60" y2="680"/><line x1="120" y1="40" x2="120" y2="680"/><line x1="180" y1="40" x2="180" y2="680"/><line x1="240" y1="40" x2="240" y2="680"/><line x1="300" y1="40" x2="300" y2="680"/><line x1="360" y1="40" x2="360" y2="680"/><line x1="420" y1="40" x2="420" y2="680"/><line x1="480" y1="40" x2="480" y2="680"/><line x1="540" y1="40" x2="540" y2="680"/><line x1="600" y1="40" x2="600" y2="680"/><line x1="660" y1="40" x2="660" y2="680"/><line x1="40" y1="60" x2="680" y2="60"/><line x1="40" y1="120" x2="680" y2="120"/><line x1="40" y1="180" x2="680" y2="180"/><line x1="40" y1="240" x2="680" y2="240"/><line x1="40" y1="300" x2="680" y2="300"/><line x1="40" y1="360" x2="680" y2="360"/><line x1="40" y1="420" x2="680" y2="420"/><line x1="40" y1="480" x2="680" y2="480"/><line x1="40" y1="540" x2="680" y2="540"/><line x1="40" y1="600" x2="680" y2="600"/><line x1="40" y1="660" x2="680" y2="660"/></g>
<g>
<ellipse cx="360" cy="540" rx="190" ry="26" fill="#020617" fill-opacity="0.36"/>
<path d="M224 272L360 184L496 272V324H224V272Z" fill="#FDE68A" fill-opacity="0.88"/>
<rect x="190" y="308" width="340" height="172" rx="42" fill="url(#tank)" stroke="#FDBA74" stroke-width="4"/>
<rect x="146" y="332" width="34" height="128" rx="16" fill="#7C2D12"/>
<rect x="540" y="332" width="34" height="128" rx="16" fill="#7C2D12"/>
<rect x="332" y="170" width="56" height="178" rx="22" fill="#FFF7ED" fill-opacity="0.95"/>
<rect x="270" y="344" width="180" height="86" rx="28" fill="#FED7AA" fill-opacity="0.18" stroke="#FFEDD5" stroke-opacity="0.45"/>
<circle cx="280" cy="346" r="26" fill="#FB7185"/>
<circle cx="440" cy="346" r="26" fill="#FB7185"/>
<circle cx="360" cy="272" r="24" fill="#FDE68A"/>
<path d="M252 530C290 494 322 478 360 478C398 478 430 494 468 530" stroke="#FB7185" stroke-width="10" stroke-linecap="round"/>
</g>
<g fill="#E2E8F0" font-family="Inter,Arial,sans-serif">
<text x="58" y="86" font-size="42" font-weight="800">BOSS // OVERLORD MK-II</text>
<text x="58" y="126" font-size="20" font-weight="500" fill="#CBD5E1">Heavy armor • spread fire • charge burst • base breaker</text>
<text x="58" y="658" font-size="18" font-weight="700" fill="#FDE68A">Reward: bonus coins + guaranteed drop</text>
</g>
</svg>