<svg width="1200" height="720" viewBox="0 0 1200 720" fill="none" xmlns="http://www.w3.org/2000/svg">
<defs>
<linearGradient id="bg" x1="0" y1="0" x2="1200" y2="720" gradientUnits="userSpaceOnUse"><stop stop-color="#07111F"/><stop offset="1" stop-color="#13294B"/></linearGradient>
<radialGradient id="glow1" cx="0" cy="0" r="1" gradientUnits="userSpaceOnUse" gradientTransform="translate(280 180) rotate(90) scale(220 320)"><stop stop-color="#22D3EE" stop-opacity="0.55"/><stop offset="1" stop-color="#22D3EE" stop-opacity="0"/></radialGradient>
<radialGradient id="glow2" cx="0" cy="0" r="1" gradientUnits="userSpaceOnUse" gradientTransform="translate(920 520) rotate(90) scale(180 260)"><stop stop-color="#A78BFA" stop-opacity="0.55"/><stop offset="1" stop-color="#A78BFA" stop-opacity="0"/></radialGradient>
<linearGradient id="tankBody" x1="0" y1="0" x2="1" y2="1"><stop stop-color="#34D399"/><stop offset="1" stop-color="#14532D"/></linearGradient>
<linearGradient id="bossBody" x1="0" y1="0" x2="1" y2="1"><stop stop-color="#F97316"/><stop offset="1" stop-color="#7C2D12"/></linearGradient>
</defs>
<rect width="1200" height="720" rx="28" fill="url(#bg)"/>
<rect x="38" y="38" width="1124" height="644" rx="22" stroke="rgba(103,232,249,.35)" stroke-width="2"/>
<rect x="0" y="0" width="1200" height="720" fill="url(#glow1)"/>
<rect x="0" y="0" width="1200" height="720" fill="url(#glow2)"/>
<g opacity="0.16" stroke="#93C5FD">
<line x1="80" y1="60" x2="80" y2="660"/><line x1="160" y1="60" x2="160" y2="660"/><line x1="240" y1="60" x2="240" y2="660"/><line x1="320" y1="60" x2="320" y2="660"/><line x1="400" y1="60" x2="400" y2="660"/><line x1="480" y1="60" x2="480" y2="660"/><line x1="560" y1="60" x2="560" y2="660"/><line x1="640" y1="60" x2="640" y2="660"/><line x1="720" y1="60" x2="720" y2="660"/><line x1="800" y1="60" x2="800" y2="660"/><line x1="880" y1="60" x2="880" y2="660"/><line x1="960" y1="60" x2="960" y2="660"/><line x1="1040" y1="60" x2="1040" y2="660"/><line x1="1120" y1="60" x2="1120" y2="660"/><line x1="60" y1="80" x2="1140" y2="80"/><line x1="60" y1="160" x2="1140" y2="160"/><line x1="60" y1="240" x2="1140" y2="240"/><line x1="60" y1="320" x2="1140" y2="320"/><line x1="60" y1="400" x2="1140" y2="400"/><line x1="60" y1="480" x2="1140" y2="480"/><line x1="60" y1="560" x2="1140" y2="560"/><line x1="60" y1="640" x2="1140" y2="640"/></g>
<g>
<rect x="380" y="560" width="440" height="70" rx="16" fill="#EAB308" fill-opacity="0.18" stroke="#FCD34D"/>
<rect x="476" y="584" width="248" height="22" rx="10" fill="#FCD34D" fill-opacity="0.9"/>
<path d="M600 160L748 214V302C748 390 679 456 600 484C521 456 452 390 452 302V214L600 160Z" fill="#22D3EE" fill-opacity="0.10" stroke="#67E8F9" stroke-width="3"/>
<g transform="translate(0,-4)">
<ellipse cx="600" cy="434" rx="150" ry="18" fill="#020617" fill-opacity="0.35"/>
<rect x="500" y="322" width="200" height="84" rx="22" fill="url(#tankBody)" stroke="#D1FAE5" stroke-opacity="0.35" stroke-width="3"/>
<rect x="458" y="338" width="34" height="56" rx="14" fill="#14532D"/>
<rect x="708" y="338" width="34" height="56" rx="14" fill="#14532D"/>
<rect x="575" y="256" width="50" height="94" rx="18" fill="#E2E8F0" fill-opacity="0.9"/>
<rect x="540" y="344" width="120" height="42" rx="16" fill="#BBF7D0" fill-opacity="0.26" stroke="#ECFCCB" stroke-opacity="0.6"/>
<circle cx="530" cy="330" r="10" fill="#67E8F9"/>
<circle cx="670" cy="330" r="10" fill="#67E8F9"/>
</g>
<g transform="translate(180,-24)">
<ellipse cx="720" cy="410" rx="120" ry="16" fill="#020617" fill-opacity="0.32"/>
<rect x="640" y="322" width="160" height="72" rx="20" fill="url(#bossBody)" stroke="#FED7AA" stroke-opacity="0.45" stroke-width="3"/>
<rect x="606" y="334" width="28" height="48" rx="12" fill="#7C2D12"/>
<rect x="806" y="334" width="28" height="48" rx="12" fill="#7C2D12"/>
<rect x="708" y="262" width="28" height="92" rx="14" fill="#FFF7ED" fill-opacity="0.92"/>
<rect x="676" y="280" width="92" height="20" rx="10" fill="#FDBA74" fill-opacity="0.9"/>
<circle cx="690" cy="336" r="12" fill="#FDE68A"/>
<circle cx="750" cy="336" r="12" fill="#FDE68A"/>
</g>
<g fill="#E2E8F0" fill-opacity="0.92" font-family="Inter,Arial,sans-serif">
<text x="82" y="112" font-size="54" font-weight="800">Boss Hunt Protocol</text>
<text x="82" y="162" font-size="22" font-weight="500" fill="#CBD5E1">Neon battlefield • base defense • item drops • formal boss stages</text>
<text x="82" y="622" font-size="18" font-weight="600" fill="#67E8F9">NEW: Overlord Mk-II / Hydra Siege / Titan Core</text>
</g>
</g>
</svg>