<svg xmlns="http://www.w3.org/2000/svg" viewBox="0 0 960 520" fill="none"><defs><linearGradient id="bg" x1="0" y1="0" x2="1" y2="1"><stop stop-color="#07111f"/><stop offset="1" stop-color="#172554"/></linearGradient><linearGradient id="line" x1="0" y1="0" x2="1" y2="0"><stop stop-color="#38bdf8" stop-opacity=".8"/><stop offset="1" stop-color="#f97316" stop-opacity=".8"/></linearGradient></defs><rect width="960" height="520" rx="32" fill="url(#bg)"/><g opacity=".14" stroke="#93c5fd"><path d="M70 80h820M70 170h820M70 260h820M70 350h820M70 440h820"/><path d="M140 50v420M300 50v420M480 50v420M660 50v420M820 50v420"/></g><path d="M130 400C210 350 260 320 330 280C395 244 437 220 500 200C575 176 644 170 720 146C776 128 819 104 860 80" stroke="url(#line)" stroke-width="10" stroke-linecap="round"/><g fill="#0f172a" stroke="#38bdf8"><circle cx="140" cy="392" r="28"/><circle cx="328" cy="282" r="24"/><circle cx="506" cy="198" r="24"/><circle cx="718" cy="148" r="28"/></g><g fill="#e2e8f0" font-family="Inter, Arial" font-weight="700" font-size="20"><text x="112" y="398">1</text><text x="320" y="288">2</text><text x="498" y="204">3</text><text x="709" y="154">6</text></g><g><rect x="620" y="250" width="240" height="150" rx="24" fill="#0f172a" fill-opacity=".72" stroke="#fb7185" stroke-opacity=".4"/><text x="648" y="292" fill="#fecaca" font-family="Inter, Arial" font-size="18" font-weight="700">Boss Route</text><text x="648" y="330" fill="#fff7ed" font-family="Inter, Arial" font-size="32" font-weight="800">Overlord</text><text x="648" y="360" fill="#cbd5e1" font-family="Inter, Arial" font-size="16">Stage 3 opens the first cinematic</text></g></svg>